SplineFontDB: 3.0
FontName: La_roquette
FullName: TurtleBase La Roquette
FamilyName: TurtleBase
Weight: Medium
Copyright: Created by Alice/Vincent/Margot/Lorene, with FontForge 2.0 (http://fontforge.sf.net)
UComments: "2012-11-21: Created." 
Version: 001.000
ItalicAngle: 0
UnderlinePosition: -100
UnderlineWidth: 50
Ascent: 800
Descent: 200
UFOAscent: 800
UFODescent: -200
LayerCount: 2
Layer: 0 0 "Back"  1
Layer: 1 0 "Fore"  0
FSType: 8
OS2Version: 0
OS2_WeightWidthSlopeOnly: 0
OS2_UseTypoMetrics: 0
CreationTime: 1353516668
ModificationTime: 1353592143
PfmFamily: 0
TTFWeight: 500
TTFWidth: 5
LineGap: 0
VLineGap: 0
OS2TypoAscent: 800
OS2TypoAOffset: 0
OS2TypoDescent: 200
OS2TypoDOffset: 0
OS2TypoLinegap: 90
OS2WinAscent: 800
OS2WinAOffset: 0
OS2WinDescent: -72
OS2WinDOffset: 0
HheadAscent: 0
HheadAOffset: 1
HheadDescent: 0
HheadDOffset: 1
OS2Vendor: 'PfEd'
DEI: 91125
LangName: 1033 "" "" "" "" "" "Version 001.000" 
Encoding: UnicodeBmp
UnicodeInterp: none
NameList: AGL For New Fonts
DisplaySize: -96
AntiAlias: 1
FitToEm: 1
WinInfo: 60 12 5
Grid
-1000 504.38769722 m 0
 2000 504.38769722 l 0
-1000 1318.00003052 m 0
 2000 1318.00003052 l 0
497.313995361 1300 m 0
 497.313995361 -700 l 0
EndSplineSet
BeginChars: 65537 41

StartChar: zero
Encoding: 48 48 0
Width: 1000
VWidth: 0
GlyphClass: 2
Flags: W
LayerCount: 2
Fore
SplineSet
330.063 0.37207 m 1
 450.875 70.123 l 1
 520.625 190.935 l 1
 520.625 609.438 l 1
 450.875 730.249 l 1
 330.063 800 l 1
 190.562 800 l 1
 69.751 730.249 l 1
 0 609.438 l 1
 0 190.935 l 1
 69.751 70.123 l 1
 190.562 0.37207 l 1
 330.063 0.37207 l 1
 190.562 0.37207 l 1
 69.751 70.123 l 1
 453.379 734.586 l 1
EndSplineSet
EndChar

StartChar: one
Encoding: 49 49 1
Width: 1000
VWidth: 0
GlyphClass: 2
Flags: W
LayerCount: 2
Fore
SplineSet
204.184 0.37207 m 1
 204.184 800 l 1
 0 628.67 l 1
EndSplineSet
EndChar

StartChar: three
Encoding: 51 51 2
Width: 1000
VWidth: 0
GlyphClass: 2
Flags: W
LayerCount: 2
Fore
SplineSet
0 27.1553 m 1
 99.9531 0.37207 l 1
 199.907 27.1553 l 1
 273.078 100.326 l 1
 299.86 200.279 l 1
 273.078 300.232 l 1
 199.907 373.403 l 1
 99.9531 400.187 l 1
 199.907 426.969 l 1
 273.078 500.14 l 1
 299.86 600.093 l 1
 273.078 700.047 l 1
 199.907 773.218 l 1
 99.9531 800 l 1
 0 773.218 l 1
EndSplineSet
EndChar

StartChar: two
Encoding: 50 50 3
Width: 1000
VWidth: 0
GlyphClass: 2
Flags: W
LayerCount: 2
Fore
SplineSet
515.295 1.94824 m 1
 0 1.94824 l 1
 515.239 615.986 l 1
 295.939 800 l 1
 111.926 580.701 l 1
EndSplineSet
EndChar

StartChar: four
Encoding: 52 52 4
Width: 1000
VWidth: 0
GlyphClass: 2
Flags: W
LayerCount: 2
Fore
SplineSet
1.03711 343.07 m 1
 572.199 343.07 l 1
 343.734 343.07 l 1
 343.734 0.37207 l 1
 343.734 800 l 1
 0 343.85 l 1
EndSplineSet
EndChar

StartChar: five
Encoding: 53 53 5
Width: 1000
VWidth: 0
GlyphClass: 2
Flags: W
LayerCount: 2
Fore
SplineSet
515.885 800 m 1
 45.2832 800 l 1
 45.2832 603.473 l 1
 94.4189 622.677 l 1
 145.914 632.428 l 1
 198.203 632.428 l 1
 249.697 622.677 l 1
 298.833 603.473 l 1
 344.117 575.397 l 1
 384.173 539.304 l 1
 417.783 496.29 l 1
 443.928 447.662 l 1
 461.812 394.897 l 1
 470.892 339.601 l 1
 470.892 283.449 l 1
 461.812 228.151 l 1
 443.928 175.388 l 1
 417.783 126.76 l 1
 384.173 83.7451 l 1
 344.117 47.6523 l 1
 298.833 19.5771 l 1
 249.697 0.37207 l 1
 198.203 -9.37793 l 1
 145.914 -9.37793 l 1
 94.4189 0.37207 l 1
 45.2832 19.5771 l 1
 0 47.6523 l 1
EndSplineSet
EndChar

StartChar: six
Encoding: 54 54 6
Width: 1000
VWidth: 0
GlyphClass: 2
Flags: W
LayerCount: 2
Fore
SplineSet
799.628 800 m 1
 0 800 l 1
 0 0.37207 l 1
 799.628 0.37207 l 1
 799.628 400.187 l 1
 0 400.187 l 1
EndSplineSet
EndChar

StartChar: nine
Encoding: 57 57 7
Width: 1000
VWidth: 0
GlyphClass: 2
Flags: W
LayerCount: 2
Fore
SplineSet
261.604 0.37207 m 1
 357.358 55.6562 l 1
 412.643 151.41 l 1
 412.643 648.962 l 1
 357.358 744.717 l 1
 261.604 800 l 1
 151.038 800 l 1
 55.2832 744.717 l 1
 0 648.962 l 1
 0 538.396 l 1
 55.2832 442.642 l 1
 151.038 387.357 l 1
 261.604 387.357 l 1
 405.235 470.283 l 1
EndSplineSet
EndChar

StartChar: eight
Encoding: 56 56 8
Width: 1000
VWidth: 0
GlyphClass: 2
Flags: W
LayerCount: 2
Fore
SplineSet
0 800 m 1
 399.813 800 l 1
 399.813 400.187 l 1
 0 400.187 l 1
 0 800 l 1
 0 0.37207 l 1
 399.813 0.37207 l 1
 399.813 400.187 l 1
EndSplineSet
EndChar

StartChar: question
Encoding: 63 63 9
Width: 1000
VWidth: 0
GlyphClass: 2
Flags: W
LayerCount: 2
Fore
SplineSet
0 504.837 m 1
 0 552.329 l 1
 8.24707 599.1 l 1
 24.4902 643.727 l 1
 48.2363 684.856 l 1
 78.7627 721.237 l 1
 115.144 751.764 l 1
 156.273 775.51 l 1
 200.9 791.753 l 1
 247.671 800 l 1
 295.163 800 l 1
 341.934 791.753 l 1
 386.561 775.51 l 1
 427.69 751.764 l 1
 464.071 721.237 l 1
 494.598 684.856 l 1
 518.344 643.727 l 1
 534.587 599.1 l 1
 542.834 552.329 l 1
 542.834 504.837 l 1
 534.587 458.066 l 1
 518.344 413.439 l 1
 494.598 372.31 l 1
 464.071 335.929 l 1
 427.69 305.402 l 1
 386.561 281.656 l 1
 341.934 265.413 l 1
 323.743 250.149 l 1
 311.87 229.585 l 1
 311.87 134.601 l 1
311.87 27.8711 m 1
 311.87 4.12598 l 1
EndSplineSet
EndChar

StartChar: hyphen
Encoding: 45 45 10
Width: 1000
VWidth: 0
GlyphClass: 2
Flags: W
LayerCount: 2
Fore
SplineSet
0 800 m 1
 230.97 800 l 1
EndSplineSet
EndChar

StartChar: seven
Encoding: 55 55 11
Width: 1000
VWidth: 0
GlyphClass: 2
Flags: W
LayerCount: 2
Fore
SplineSet
134.433 0.37207 m 1
 425.473 800 l 1
 0 800 l 1
198.554 459.622 m 1
 397.108 459.622 l 1
EndSplineSet
EndChar

StartChar: C
Encoding: 67 67 12
Width: 1000
VWidth: 0
GlyphClass: 2
Flags: W
LayerCount: 2
Fore
SplineSet
-0 499.682 m 1
 3.08301 285.174 l 1
 113.007 100.945 l 1
 300.318 -3.63965 l 1
 514.826 -0.556641 l 1
 699.055 109.367 l 1
690.633 695.415 m 1
 503.321 800 l 1
 288.813 796.917 l 1
 104.585 686.993 l 1
 -0 499.682 l 1
EndSplineSet
EndChar

StartChar: parenright
Encoding: 41 41 13
Width: 1000
VWidth: 0
GlyphClass: 2
Flags: W
LayerCount: 2
Fore
SplineSet
0 0.37207 m 1
 234.205 234.578 l 1
 234.205 565.795 l 1
 0 800 l 1
EndSplineSet
EndChar

StartChar: ampersand
Encoding: 38 38 14
Width: 1000
VWidth: 0
GlyphClass: 2
Flags: W
LayerCount: 2
Fore
SplineSet
564.029 78.0117 m 1
 146.525 575.573 l 1
 128.754 624.401 l 1
 128.754 676.363 l 1
 146.525 725.191 l 1
 179.926 764.996 l 1
 224.926 790.977 l 1
 276.099 800 l 1
 327.271 790.977 l 1
 372.271 764.996 l 1
 405.671 725.191 l 1
 423.442 676.363 l 1
 423.442 624.401 l 1
 405.671 575.573 l 1
 372.271 535.769 l 1
 327.271 509.788 l 1
 276.099 500.765 l 1
 224.926 491.741 l 1
 173.754 482.719 l 1
 114.887 455.269 l 1
 65.1309 413.519 l 1
 27.876 360.312 l 1
 5.66113 299.277 l 1
 0 234.572 l 1
 11.2783 170.607 l 1
 38.7285 111.74 l 1
 80.4795 61.9844 l 1
 133.685 24.7295 l 1
 194.72 2.51465 l 1
 259.425 -3.14648 l 1
 323.39 8.13281 l 1
 382.257 35.582 l 1
 432.013 77.333 l 1
 469.268 130.538 l 1
 491.482 191.573 l 1
 497.144 256.278 l 1
 485.865 320.244 l 1
EndSplineSet
EndChar

StartChar: A
Encoding: 65 65 15
Width: 1000
VWidth: 0
GlyphClass: 2
Flags: W
LayerCount: 2
Fore
SplineSet
0 0.37207 m 1
 262.997 800 l 1
 525.995 0.37207 l 1
 433.945 280.242 l 1
 49.4688 280.242 l 1
EndSplineSet
EndChar

StartChar: B
Encoding: 66 66 16
Width: 1000
VWidth: 0
GlyphClass: 2
Flags: W
LayerCount: 2
Fore
SplineSet
91.0928 0.37207 m 1
 91.0928 708.907 l 1
 0 800 l 1
 303.643 496.357 l 1
 197.367 390.083 l 1
 318.824 268.626 l 1
 318.824 107.596 l 1
 250.505 39.2754 l 1
EndSplineSet
EndChar

StartChar: D
Encoding: 68 68 17
Width: 1000
VWidth: 0
GlyphClass: 2
Flags: W
LayerCount: 2
Fore
SplineSet
0 136.797 m 1
 0 800 l 1
 234.478 565.522 l 1
 234.478 233.921 l 1
 0 -0.556641 l 1
 0 662.646 l 1
EndSplineSet
EndChar

StartChar: G
Encoding: 71 71 18
Width: 1000
VWidth: 0
GlyphClass: 2
Flags: W
LayerCount: 2
Fore
SplineSet
799.835 800 m 1
 0 800 l 1
 0 0.165039 l 1
 799.835 0.165039 l 1
 799.835 400.083 l 1
 399.917 400.083 l 1
EndSplineSet
EndChar

StartChar: F
Encoding: 70 70 19
Width: 1000
VWidth: 0
GlyphClass: 2
Flags: W
LayerCount: 2
Fore
SplineSet
0 0.220703 m 1
 0 400.11 l 1
 299.917 400.11 l 1
 0 400.11 l 1
 0 800 l 1
 399.89 800 l 1
EndSplineSet
EndChar

StartChar: H
Encoding: 72 72 20
Width: 1000
VWidth: 0
GlyphClass: 2
Flags: W
LayerCount: 2
Fore
SplineSet
0 0.37207 m 1
 0 800 l 1
 0 400.187 l 1
 266.543 400.187 l 1
 266.543 800 l 1
 266.543 0.37207 l 1
EndSplineSet
EndChar

StartChar: I
Encoding: 73 73 21
Width: 1000
VWidth: 0
GlyphClass: 2
Flags: W
LayerCount: 2
Fore
SplineSet
0 0.37207 m 1
 0 800 l 1
EndSplineSet
EndChar

StartChar: E
Encoding: 69 69 22
Width: 1000
VWidth: 0
GlyphClass: 2
Flags: W
LayerCount: 2
Fore
SplineSet
0 0.37207 m 1
 399.813 0.37207 l 1
 0 0.37207 l 1
 0 400.187 l 1
 299.86 400.187 l 1
 0 400.187 l 1
 0 800 l 1
 399.813 800 l 1
EndSplineSet
EndChar

StartChar: O
Encoding: 79 79 23
Width: 1000
VWidth: 0
GlyphClass: 2
Flags: W
LayerCount: 2
Fore
SplineSet
504.037 8.95703 m 1
 688.527 114.937 l 1
 795.043 298.499 l 1
 795.043 510.458 l 1
 688.527 694.021 l 1
 504.037 800 l 1
 291.006 800 l 1
 106.516 694.021 l 1
 0 510.458 l 1
 0 298.499 l 1
 106.516 114.937 l 1
 291.006 8.95703 l 1
 504.037 8.95703 l 1
EndSplineSet
EndChar

StartChar: J
Encoding: 74 74 24
Width: 1000
VWidth: 0
GlyphClass: 2
Flags: W
LayerCount: 2
Fore
SplineSet
213.234 800 m 1
 586.394 800 l 1
 399.813 800 l 1
 399.813 0.37207 l 1
 0 0.37207 l 1
EndSplineSet
EndChar

StartChar: K
Encoding: 75 75 25
Width: 1000
VWidth: 0
GlyphClass: 2
Flags: W
LayerCount: 2
Fore
SplineSet
0 781.058 m 1
 0 0.37207 l 1
0 468.783 m 1
 331.217 800 l 1
 77.2842 546.067 l 1
 453.421 8.8877 l 1
EndSplineSet
EndChar

StartChar: L
Encoding: 76 76 26
Width: 1000
VWidth: 0
GlyphClass: 2
Flags: W
LayerCount: 2
Fore
SplineSet
0 800 m 1
 0 0.37207 l 1
 399.813 0.37207 l 1
EndSplineSet
EndChar

StartChar: M
Encoding: 77 77 27
Width: 1000
VWidth: 0
GlyphClass: 2
Flags: W
LayerCount: 2
Fore
SplineSet
800.11 -3.63477 m 1
 604.297 794.252 l 1
 400.055 2.1123 l 1
 204.242 800 l 1
 0 7.86035 l 1
EndSplineSet
EndChar

StartChar: N
Encoding: 78 78 28
Width: 1000
VWidth: 0
GlyphClass: 2
Flags: HW
LayerCount: 2
Fore
SplineSet
0 8.40918 m 1
 0 800 l 1
 499.627929688 0.3720703125 l 1
 499.627929688 791.962890625 l 1
EndSplineSet
EndChar

StartChar: T
Encoding: 84 84 29
Width: 1000
VWidth: 0
GlyphClass: 2
Flags: W
LayerCount: 2
Fore
SplineSet
159.926 0.37207 m 1
 159.926 800 l 1
 0 800 l 1
 319.851 800 l 1
EndSplineSet
EndChar

StartChar: P
Encoding: 80 80 30
Width: 1000
VWidth: 0
GlyphClass: 2
Flags: W
LayerCount: 2
Fore
SplineSet
0 0.37207 m 1
 0 800 l 1
 319.851 800 l 1
 470.63 649.221 l 1
 470.63 435.986 l 1
 319.851 285.207 l 1
 -0 285.207 l 1
EndSplineSet
EndChar

StartChar: Q
Encoding: 81 81 31
Width: 1000
VWidth: 0
GlyphClass: 2
Flags: W
LayerCount: 2
Fore
SplineSet
506.943 0.37207 m 1
 692.498 107.502 l 1
 799.628 293.057 l 1
 799.628 507.316 l 1
 692.498 692.87 l 1
 506.943 800 l 1
 292.684 800 l 1
 107.13 692.87 l 1
 0 507.316 l 1
 0 293.057 l 1
 107.13 107.502 l 1
 292.684 0.37207 l 1
 506.943 0.37207 l 1
 708.282 -72.9092 l 1
EndSplineSet
EndChar

StartChar: R
Encoding: 82 82 32
Width: 1000
VWidth: 0
GlyphClass: 2
Flags: W
LayerCount: 2
Fore
SplineSet
0 0.571289 m 1
 0 800 l 1
 282.151 800 l 1
 415.158 666.992 l 1
 415.158 478.892 l 1
 282.151 345.885 l 1
 0 345.885 l 1
 282.151 345.885 l 1
 627.971 0.0654297 l 1
EndSplineSet
EndChar

StartChar: S
Encoding: 83 83 33
Width: 1000
VWidth: 0
GlyphClass: 2
Flags: W
LayerCount: 2
Fore
SplineSet
18.1768 281.124 m 1
 6.12109 248.001 l 1
 0 213.288 l 1
 0 178.04 l 1
 6.12109 143.327 l 1
 18.1768 110.204 l 1
 35.8008 79.6787 l 1
 58.458 52.6768 l 1
 85.46 30.0195 l 1
 115.985 12.3955 l 1
 149.108 0.339844 l 1
 183.821 -5.78125 l 1
 219.069 -5.78125 l 1
 253.782 0.339844 l 1
 286.905 12.3955 l 1
 317.431 30.0195 l 1
 344.433 52.6768 l 1
 367.09 79.6787 l 1
 384.714 110.204 l 1
 396.77 143.327 l 1
 402.891 178.04 l 1
 402.891 213.288 l 1
 396.77 248.001 l 1
 384.714 281.124 l 1
 367.09 311.649 l 1
 344.433 338.651 l 1
 317.431 361.309 l 1
 286.905 378.933 l 1
 253.782 390.988 l 1
 184.356 403.23 l 1
 151.234 415.286 l 1
 120.708 432.91 l 1
 93.7061 455.567 l 1
 71.0488 482.569 l 1
 53.4248 513.095 l 1
 41.3691 546.218 l 1
 35.248 580.931 l 1
 35.248 616.179 l 1
 41.3691 650.892 l 1
 53.4248 684.015 l 1
 71.0488 714.54 l 1
 93.7061 741.542 l 1
 120.708 764.199 l 1
 151.234 781.823 l 1
 184.356 793.879 l 1
 219.069 800 l 1
 254.317 800 l 1
 289.03 793.879 l 1
 322.153 781.823 l 1
 352.68 764.199 l 1
 379.681 741.542 l 1
 402.338 714.54 l 1
 419.963 684.015 l 1
EndSplineSet
EndChar

StartChar: V
Encoding: 86 86 34
Width: 1000
VWidth: 0
GlyphClass: 2
Flags: HW
LayerCount: 2
Fore
SplineSet
0 800 m 1
 248.463867188 0 l 1
 497.313476562 801 l 1
EndSplineSet
EndChar

StartChar: W
Encoding: 87 87 35
Width: 1000
VWidth: 0
GlyphClass: 2
Flags: W
LayerCount: 2
Fore
SplineSet
0 800 m 1
 193.753 8.11035 l 1
 395.847 794.296 l 1
 589.6 2.40527 l 1
 791.693 788.591 l 1
EndSplineSet
EndChar

StartChar: X
Encoding: 88 88 36
Width: 1000
VWidth: 0
GlyphClass: 2
Flags: W
LayerCount: 2
Fore
SplineSet
0 800 m 1
 800.557 -0.556641 l 1
 400.278 399.722 l 1
 800.557 800 l 1
 0 -0.556641 l 1
EndSplineSet
EndChar

StartChar: U
Encoding: 85 85 37
Width: 1000
VWidth: 0
GlyphClass: 2
Flags: W
LayerCount: 2
Fore
SplineSet
97.1943 -0.556641 m 1
 377.742 -0.556641 l 1
 476.931 98.6318 l 1
 476.931 800 l 1
0 800 m 1
 0 98.6318 l 1
 99.1885 -0.556641 l 1
EndSplineSet
EndChar

StartChar: Y
Encoding: 89 89 38
Width: 1000
VWidth: 0
GlyphClass: 2
Flags: HW
LayerCount: 2
UndoRedoHistory
Layer: 1
Undoes
EndUndoes
Redoes
EndRedoes
EndUndoRedoHistory
Fore
SplineSet
-0 807.387695312 m 1
 228.602539062 372.387695312 l 5
497.313476562 801.387695312 m 1
 0 -0 l 1
EndSplineSet
EndChar

StartChar: Z
Encoding: 90 90 39
Width: 1000
VWidth: 0
GlyphClass: 2
Flags: HW
LayerCount: 2
Fore
SplineSet
179.778320312 504.387695312 m 5
 358.53515625 504.387695312 345.524414062 504.387695312 422.778320312 504.387695312 c 1
45.7842 800 m 1
 497.313476562 801.387695312 l 1
 0 -0.556641 l 1
 497.313476562 0 l 1
EndSplineSet
EndChar

StartChar: u1F422
Encoding: 65536 128034 40
Width: 1000
VWidth: 0
GlyphClass: 2
Flags: W
LayerCount: 2
Fore
SplineSet
300.368 800 m 1
 635.878 800 l 1
 794.038 641.84 l 1
 123.02 641.84 l 1
 682.202 641.84 l 1
 761.282 562.759 l 1
 705.364 562.759 l 1
 626.283 641.84 l 1
 290.774 641.84 l 1
 211.694 562.759 l 1
 267.612 562.759 l 1
 346.692 641.84 l 1
 139.796 641.84 l 1
 297.956 800 l 1
 139.796 641.84 l 1
 0 641.84 l 1
 0 725.717 l 1
 83.877 725.717 l 1
 180.168 680.815 l 1
EndSplineSet
EndChar
